<svg id="Group_2621" data-name="Group 2621" xmlns="http://www.w3.org/2000/svg" width="26.543" height="32" viewBox="0 0 26.543 32">
  <path id="Path_18951" data-name="Path 18951" d="M51.186,6.963C53.62,4.918,55.247.311,54.246.11c-1.33-.268-4.218.907-5.614,1.113-1.98.239-4.137-2.147-5.347-.817-.984,1.081.706,5.014,3.349,6.728C38.746,11.01,27.66,30.471,47,31.883,73.762,33.837,60.362,10.741,51.186,6.963Zm2.3,15.348A2.814,2.814,0,0,1,52.4,24.221a4.148,4.148,0,0,1-2.221.785v.838a.787.787,0,1,1-1.574,0v-.916c-.136-.026-.27-.056-.4-.093a3.864,3.864,0,0,1-1.926-1.185,3.471,3.471,0,0,1-.593-.981c-.037-.093-.07-.189-.1-.285a1.461,1.461,0,0,1-.062-.266.787.787,0,0,1,1.53-.327c.03.091.05.184.084.273a1.754,1.754,0,0,0,.121.258,2.007,2.007,0,0,0,.346.442,2.343,2.343,0,0,0,1,.546V20.2a5.6,5.6,0,0,1-2.064-.892,2.4,2.4,0,0,1-.7-.837,2.62,2.62,0,0,1-.243-1.127,2.685,2.685,0,0,1,.236-1.141,2.782,2.782,0,0,1,.646-.886,3.943,3.943,0,0,1,2.122-.941V13.5a.787.787,0,1,1,1.574,0v.865q.154.019.308.047a3.888,3.888,0,0,1,2.055,1,3,3,0,0,1,.629.9,2.884,2.884,0,0,1,.111.288,1.749,1.749,0,0,1,.074.281.787.787,0,0,1-1.513.4c-.033-.086-.049-.177-.083-.263a1.387,1.387,0,0,0-.129-.248,1.5,1.5,0,0,0-.372-.39,2.552,2.552,0,0,0-1.081-.422v2.98a9.994,9.994,0,0,1,1.345.4,3.143,3.143,0,0,1,1.641,1.285c-.056-.1-.11-.193,0,0s.057.1,0,0A2.808,2.808,0,0,1,53.484,22.311Z" transform="translate(-36.238 0)" fill="#fff"/>
</svg>
