<svg xmlns="http://www.w3.org/2000/svg" width="25.877" height="31.545" viewBox="0 0 25.877 31.545">
  <g id="Group_2685" data-name="Group 2685" transform="translate(-802.123 -34)">
    <path id="Path_18953" data-name="Path 18953" d="M255,350.314,258.314,347H255Zm0,0" transform="translate(562.834 -291.621)" fill="#fff"/>
    <path id="Path_18954" data-name="Path 18954" d="M279.529,368.215l-3.314,3.314h3.314Zm0,0" transform="translate(542.926 -311.529)" fill="#fff"/>
    <g id="Group_2682" data-name="Group 2682">
      <path id="Path_18955" data-name="Path 18955" d="M90,110.455h8.318v-6.469h6.469V90H102.78a2.777,2.777,0,0,1-2.614,1.848H94.621A2.777,2.777,0,0,1,92.007,90H90Zm3.7-13.462h2.773V94.22h1.848v2.773h2.773v1.848H98.318v2.773H96.469V98.841H93.7Zm0,0" transform="translate(717.668 -50.455)" fill="#fff"/>
      <path id="Path_18956" data-name="Path 18956" d="M18.484,0V3.7h3.7V27.849H3.7V3.7h3.7V0H0V31.545H25.877V0Zm0,0" transform="translate(802.123 34)" fill="#fff"/>
    </g>
  </g>
</svg>
