<svg xmlns="http://www.w3.org/2000/svg" width="74.187" height="93.618" viewBox="0 0 74.187 93.618">
  <g id="Group_2681" data-name="Group 2681" transform="translate(-10506.626 241.924)">
    <path id="Path_18979" data-name="Path 18979" d="M117.108,381.055A41.341,41.341,0,0,1,60.4,382.641h5.2V377.1H50.85v14.75h5.541v-5.369a46.861,46.861,0,0,0,64.634-1.509L122.993,383l-3.917-3.917Z" transform="translate(10455.776 -546.977)" fill="#fff"/>
    <path id="Path_18978" data-name="Path 18978" d="M128.133,6.821v5.369A46.861,46.861,0,0,0,63.5,13.7L61.55,15.648l3.917,3.917L67.435,17.6a41.341,41.341,0,0,1,56.705-1.586h-5.2v5.541h14.75V6.821Z" transform="translate(10447.119 -241.924)" fill="#fff"/>
    <path id="Path_18977" data-name="Path 18977" d="M130.97,157.65a27.025,27.025,0,1,0-26.92-27.034A26.969,26.969,0,0,0,130.97,157.65ZM115.15,132.067a.938.938,0,0,1,.936-.936h2.56v-1.7h-2.56a.938.938,0,0,1-.936-.936v-2.082a.938.938,0,0,1,.936-.936h3.248l.115-.325a13.847,13.847,0,0,1,4.7-6.974A13.382,13.382,0,0,1,130.4,115.6a17.913,17.913,0,0,1,9.438,1.108c.191.076.382.172.573.268a1.244,1.244,0,0,1,.592,1.758c-.344.822-.688,1.662-1.051,2.465a1.152,1.152,0,0,1-1.509.745c-1.032-.229-2.044-.554-3.076-.764a11.123,11.123,0,0,0-6.458.363,6.748,6.748,0,0,0-3.687,3.84.07.07,0,0,1-.019.057h6.324a.938.938,0,0,1,.936.936v2.082a.938.938,0,0,1-.936.936h-7.241v1.7h7.241a.938.938,0,0,1,.936.936v2.083a.938.938,0,0,1-.936.936h-6.611a7.012,7.012,0,0,0,4.528,4.834,11.6,11.6,0,0,0,5.884.172c1.013-.21,2.025-.516,3.038-.764a1.18,1.18,0,0,1,1.567.764c.382.822.726,1.662,1.07,2.5a1.2,1.2,0,0,1-.669,1.72,19.639,19.639,0,0,1-2.5.917,16.7,16.7,0,0,1-9.82-.115,12.843,12.843,0,0,1-8.12-7.757,22.491,22.491,0,0,1-.726-2.274h-3.1a.938.938,0,0,1-.936-.936v-2.044Z" transform="translate(10412.739 -325.73)" fill="#fff"/>
  </g>
</svg>
